<svg width="16" height="16" viewBox="0 0 16 16" fill="none" xmlns="http://www.w3.org/2000/svg">
<g clip-path="url(#clip0_4781_50843)">
<path d="M4.66732 16.0007C5.4037 16.0007 6.00065 15.4037 6.00065 14.6673C6.00065 13.9309 5.4037 13.334 4.66732 13.334C3.93094 13.334 3.33398 13.9309 3.33398 14.6673C3.33398 15.4037 3.93094 16.0007 4.66732 16.0007Z" fill="white"/>
<path d="M11.3333 16.0007C12.0697 16.0007 12.6667 15.4037 12.6667 14.6673C12.6667 13.9309 12.0697 13.334 11.3333 13.334C10.597 13.334 10 13.9309 10 14.6673C10 15.4037 10.597 16.0007 11.3333 16.0007Z" fill="white"/>
<path d="M15.3327 2H13.9993V0.666667C13.9993 0.489856 13.9291 0.320286 13.8041 0.195262C13.6791 0.0702379 13.5095 0 13.3327 0C13.1559 0 12.9863 0.0702379 12.8613 0.195262C12.7363 0.320286 12.666 0.489856 12.666 0.666667V2H11.3327C11.1559 2 10.9863 2.07024 10.8613 2.19526C10.7363 2.32029 10.666 2.48986 10.666 2.66667C10.666 2.84348 10.7363 3.01305 10.8613 3.13807C10.9863 3.2631 11.1559 3.33333 11.3327 3.33333H12.666V4.66667C12.666 4.84348 12.7363 5.01305 12.8613 5.13807C12.9863 5.26309 13.1559 5.33333 13.3327 5.33333C13.5095 5.33333 13.6791 5.26309 13.8041 5.13807C13.9291 5.01305 13.9993 4.84348 13.9993 4.66667V3.33333H15.3327C15.5095 3.33333 15.6791 3.2631 15.8041 3.13807C15.9291 3.01305 15.9993 2.84348 15.9993 2.66667C15.9993 2.48986 15.9291 2.32029 15.8041 2.19526C15.6791 2.07024 15.5095 2 15.3327 2Z" fill="white"/>
<path d="M14.514 6.484C14.4278 6.46787 14.3393 6.46901 14.2535 6.48735C14.1678 6.5057 14.0865 6.54088 14.0144 6.59086C13.9424 6.64084 13.881 6.70463 13.8337 6.77852C13.7865 6.85241 13.7544 6.93495 13.7393 7.02133C13.6562 7.48277 13.4136 7.90033 13.0539 8.20106C12.6941 8.5018 12.2402 8.6666 11.7713 8.66667H3.612L2.98533 3.33333H8.66667C8.84348 3.33333 9.01305 3.2631 9.13807 3.13807C9.2631 3.01305 9.33333 2.84348 9.33333 2.66667C9.33333 2.48986 9.2631 2.32029 9.13807 2.19526C9.01305 2.07024 8.84348 2 8.66667 2H2.828L2.8 1.76533C2.74255 1.27907 2.50871 0.830769 2.14279 0.505403C1.77688 0.180036 1.30432 0.000208558 0.814667 0L0.666667 0C0.489856 0 0.320286 0.0702379 0.195262 0.195262C0.0702379 0.320286 0 0.489856 0 0.666667C0 0.843478 0.0702379 1.01305 0.195262 1.13807C0.320286 1.2631 0.489856 1.33333 0.666667 1.33333H0.814667C0.977956 1.33335 1.13556 1.3933 1.25758 1.50181C1.3796 1.61032 1.45756 1.75983 1.47667 1.922L2.394 9.722C2.48923 10.5332 2.87899 11.2812 3.48927 11.824C4.09956 12.3668 4.8879 12.6667 5.70467 12.6667H12.6667C12.8435 12.6667 13.013 12.5964 13.1381 12.4714C13.2631 12.3464 13.3333 12.1768 13.3333 12C13.3333 11.8232 13.2631 11.6536 13.1381 11.5286C13.013 11.4036 12.8435 11.3333 12.6667 11.3333H5.70467C5.29101 11.3334 4.88751 11.2052 4.54974 10.9664C4.21197 10.7276 3.95655 10.39 3.81867 10H11.7713C12.5528 10.0001 13.3094 9.72561 13.909 9.22455C14.5087 8.72348 14.9132 8.02768 15.052 7.25867C15.0676 7.17247 15.066 7.08405 15.0474 6.99847C15.0288 6.91288 14.9935 6.83179 14.9435 6.75985C14.8936 6.68791 14.8299 6.62652 14.7562 6.57919C14.6825 6.53185 14.6002 6.49951 14.514 6.484Z" fill="white"/>
</g>
<defs>
<clipPath id="clip0_4781_50843">
<rect width="16" height="16" fill="white"/>
</clipPath>
</defs>
</svg>
